<?xml version='1.0' encoding='UTF-8'?>
<svg width="43mm" height="43mm" version="1.1" viewBox="0 0 43 43" fill_color="black" back_color="white" xmlns="http://www.w3.org/2000/svg"><path d="M5,5H6V6H5zM6,5H7V6H6zM7,5H8V6H7zM8,5H9V6H8zM9,5H10V6H9zM10,5H11V6H10zM11,5H12V6H11zM14,5H15V6H14zM16,5H17V6H16zM18,5H19V6H18zM21,5H22V6H21zM22,5H23V6H22zM24,5H25V6H24zM25,5H26V6H25zM28,5H29V6H28zM31,5H32V6H31zM32,5H33V6H32zM33,5H34V6H33zM34,5H35V6H34zM35,5H36V6H35zM36,5H37V6H36zM37,5H38V6H37zM5,6H6V7H5zM11,6H12V7H11zM16,6H17V7H16zM17,6H18V7H17zM18,6H19V7H18zM19,6H20V7H19zM20,6H21V7H20zM21,6H22V7H21zM22,6H23V7H22zM25,6H26V7H25zM27,6H28V7H27zM31,6H32V7H31zM37,6H38V7H37zM5,7H6V8H5zM7,7H8V8H7zM8,7H9V8H8zM9,7H10V8H9zM11,7H12V8H11zM13,7H14V8H13zM14,7H15V8H14zM17,7H18V8H17zM18,7H19V8H18zM20,7H21V8H20zM21,7H22V8H21zM22,7H23V8H22zM23,7H24V8H23zM24,7H25V8H24zM31,7H32V8H31zM33,7H34V8H33zM34,7H35V8H34zM35,7H36V8H35zM37,7H38V8H37zM5,8H6V9H5zM7,8H8V9H7zM8,8H9V9H8zM9,8H10V9H9zM11,8H12V9H11zM13,8H14V9H13zM15,8H16V9H15zM19,8H20V9H19zM20,8H21V9H20zM21,8H22V9H21zM25,8H26V9H25zM26,8H27V9H26zM27,8H28V9H27zM29,8H30V9H29zM31,8H32V9H31zM33,8H34V9H33zM34,8H35V9H34zM35,8H36V9H35zM37,8H38V9H37zM5,9H6V10H5zM7,9H8V10H7zM8,9H9V10H8zM9,9H10V10H9zM11,9H12V10H11zM13,9H14V10H13zM16,9H17V10H16zM17,9H18V10H17zM18,9H19V10H18zM20,9H21V10H20zM23,9H24V10H23zM26,9H27V10H26zM29,9H30V10H29zM31,9H32V10H31zM33,9H34V10H33zM34,9H35V10H34zM35,9H36V10H35zM37,9H38V10H37zM5,10H6V11H5zM11,10H12V11H11zM13,10H14V11H13zM18,10H19V11H18zM19,10H20V11H19zM20,10H21V11H20zM21,10H22V11H21zM25,10H26V11H25zM29,10H30V11H29zM31,10H32V11H31zM37,10H38V11H37zM5,11H6V12H5zM6,11H7V12H6zM7,11H8V12H7zM8,11H9V12H8zM9,11H10V12H9zM10,11H11V12H10zM11,11H12V12H11zM13,11H14V12H13zM15,11H16V12H15zM17,11H18V12H17zM19,11H20V12H19zM21,11H22V12H21zM23,11H24V12H23zM25,11H26V12H25zM27,11H28V12H27zM29,11H30V12H29zM31,11H32V12H31zM32,11H33V12H32zM33,11H34V12H33zM34,11H35V12H34zM35,11H36V12H35zM36,11H37V12H36zM37,11H38V12H37zM13,12H14V13H13zM14,12H15V13H14zM15,12H16V13H15zM16,12H17V13H16zM17,12H18V13H17zM20,12H21V13H20zM23,12H24V13H23zM26,12H27V13H26zM28,12H29V13H28zM29,12H30V13H29zM5,13H6V14H5zM7,13H8V14H7zM8,13H9V14H8zM9,13H10V14H9zM10,13H11V14H10zM11,13H12V14H11zM15,13H16V14H15zM17,13H18V14H17zM18,13H19V14H18zM19,13H20V14H19zM20,13H21V14H20zM21,13H22V14H21zM22,13H23V14H22zM31,13H32V14H31zM32,13H33V14H32zM33,13H34V14H33zM34,13H35V14H34zM35,13H36V14H35zM6,14H7V15H6zM7,14H8V15H7zM9,14H10V15H9zM15,14H16V15H15zM21,14H22V15H21zM23,14H24V15H23zM24,14H25V15H24zM25,14H26V15H25zM26,14H27V15H26zM28,14H29V15H28zM31,14H32V15H31zM32,14H33V15H32zM34,14H35V15H34zM35,14H36V15H35zM37,14H38V15H37zM5,15H6V16H5zM8,15H9V16H8zM9,15H10V16H9zM10,15H11V16H10zM11,15H12V16H11zM12,15H13V16H12zM13,15H14V16H13zM16,15H17V16H16zM17,15H18V16H17zM20,15H21V16H20zM21,15H22V16H21zM23,15H24V16H23zM25,15H26V16H25zM26,15H27V16H26zM29,15H30V16H29zM33,15H34V16H33zM35,15H36V16H35zM36,15H37V16H36zM5,16H6V17H5zM6,16H7V17H6zM10,16H11V17H10zM12,16H13V17H12zM13,16H14V17H13zM17,16H18V17H17zM19,16H20V17H19zM21,16H22V17H21zM24,16H25V17H24zM25,16H26V17H25zM26,16H27V17H26zM27,16H28V17H27zM29,16H30V17H29zM30,16H31V17H30zM31,16H32V17H31zM33,16H34V17H33zM34,16H35V17H34zM35,16H36V17H35zM36,16H37V17H36zM37,16H38V17H37zM6,17H7V18H6zM9,17H10V18H9zM11,17H12V18H11zM16,17H17V18H16zM23,17H24V18H23zM24,17H25V18H24zM26,17H27V18H26zM28,17H29V18H28zM30,17H31V18H30zM32,17H33V18H32zM33,17H34V18H33zM34,17H35V18H34zM5,18H6V19H5zM7,18H8V19H7zM9,18H10V19H9zM10,18H11V19H10zM14,18H15V19H14zM19,18H20V19H19zM20,18H21V19H20zM21,18H22V19H21zM25,18H26V19H25zM27,18H28V19H27zM28,18H29V19H28zM30,18H31V19H30zM31,18H32V19H31zM36,18H37V19H36zM37,18H38V19H37zM7,19H8V20H7zM10,19H11V20H10zM11,19H12V20H11zM13,19H14V20H13zM17,19H18V20H17zM19,19H20V20H19zM23,19H24V20H23zM24,19H25V20H24zM27,19H28V20H27zM30,19H31V20H30zM31,19H32V20H31zM33,19H34V20H33zM34,19H35V20H34zM36,19H37V20H36zM5,20H6V21H5zM6,20H7V21H6zM8,20H9V21H8zM9,20H10V21H9zM12,20H13V21H12zM14,20H15V21H14zM17,20H18V21H17zM19,20H20V21H19zM21,20H22V21H21zM24,20H25V21H24zM25,20H26V21H25zM26,20H27V21H26zM30,20H31V21H30zM31,20H32V21H31zM32,20H33V21H32zM34,20H35V21H34zM35,20H36V21H35zM6,21H7V22H6zM8,21H9V22H8zM9,21H10V22H9zM11,21H12V22H11zM12,21H13V22H12zM16,21H17V22H16zM17,21H18V22H17zM18,21H19V22H18zM22,21H23V22H22zM24,21H25V22H24zM27,21H28V22H27zM29,21H30V22H29zM30,21H31V22H30zM32,21H33V22H32zM33,21H34V22H33zM37,21H38V22H37zM5,22H6V23H5zM6,22H7V23H6zM14,22H15V23H14zM19,22H20V23H19zM22,22H23V23H22zM23,22H24V23H23zM24,22H25V23H24zM25,22H26V23H25zM28,22H29V23H28zM31,22H32V23H31zM32,22H33V23H32zM34,22H35V23H34zM35,22H36V23H35zM37,22H38V23H37zM5,23H6V24H5zM6,23H7V24H6zM8,23H9V24H8zM10,23H11V24H10zM11,23H12V24H11zM15,23H16V24H15zM16,23H17V24H16zM18,23H19V24H18zM19,23H20V24H19zM20,23H21V24H20zM22,23H23V24H22zM25,23H26V24H25zM27,23H28V24H27zM29,23H30V24H29zM32,23H33V24H32zM33,23H34V24H33zM35,23H36V24H35zM36,23H37V24H36zM5,24H6V25H5zM6,24H7V25H6zM9,24H10V25H9zM13,24H14V25H13zM14,24H15V25H14zM15,24H16V25H15zM18,24H19V25H18zM19,24H20V25H19zM20,24H21V25H20zM22,24H23V25H22zM23,24H24V25H23zM24,24H25V25H24zM25,24H26V25H25zM31,24H32V25H31zM32,24H33V25H32zM33,24H34V25H33zM34,24H35V25H34zM35,24H36V25H35zM36,24H37V25H36zM37,24H38V25H37zM6,25H7V26H6zM7,25H8V26H7zM9,25H10V26H9zM11,25H12V26H11zM12,25H13V26H12zM13,25H14V26H13zM14,25H15V26H14zM17,25H18V26H17zM18,25H19V26H18zM19,25H20V26H19zM20,25H21V26H20zM21,25H22V26H21zM24,25H25V26H24zM25,25H26V26H25zM26,25H27V26H26zM27,25H28V26H27zM29,25H30V26H29zM30,25H31V26H30zM33,25H34V26H33zM34,25H35V26H34zM36,25H37V26H36zM37,25H38V26H37zM5,26H6V27H5zM9,26H10V27H9zM10,26H11V27H10zM13,26H14V27H13zM14,26H15V27H14zM17,26H18V27H17zM18,26H19V27H18zM19,26H20V27H19zM20,26H21V27H20zM23,26H24V27H23zM26,26H27V27H26zM28,26H29V27H28zM31,26H32V27H31zM34,26H35V27H34zM35,26H36V27H35zM37,26H38V27H37zM5,27H6V28H5zM8,27H9V28H8zM10,27H11V28H10zM11,27H12V28H11zM12,27H13V28H12zM15,27H16V28H15zM16,27H17V28H16zM17,27H18V28H17zM18,27H19V28H18zM20,27H21V28H20zM21,27H22V28H21zM22,27H23V28H22zM25,27H26V28H25zM29,27H30V28H29zM30,27H31V28H30zM33,27H34V28H33zM34,27H35V28H34zM35,27H36V28H35zM36,27H37V28H36zM5,28H6V29H5zM8,28H9V29H8zM10,28H11V29H10zM12,28H13V29H12zM13,28H14V29H13zM16,28H17V29H16zM17,28H18V29H17zM18,28H19V29H18zM20,28H21V29H20zM23,28H24V29H23zM26,28H27V29H26zM27,28H28V29H27zM29,28H30V29H29zM30,28H31V29H30zM31,28H32V29H31zM33,28H34V29H33zM34,28H35V29H34zM35,28H36V29H35zM5,29H6V30H5zM10,29H11V30H10zM11,29H12V30H11zM13,29H14V30H13zM14,29H15V30H14zM15,29H16V30H15zM19,29H20V30H19zM20,29H21V30H20zM21,29H22V30H21zM22,29H23V30H22zM27,29H28V30H27zM29,29H30V30H29zM30,29H31V30H30zM31,29H32V30H31zM32,29H33V30H32zM33,29H34V30H33zM36,29H37V30H36zM37,29H38V30H37zM13,30H14V31H13zM14,30H15V31H14zM16,30H17V31H16zM18,30H19V31H18zM21,30H22V31H21zM23,30H24V31H23zM24,30H25V31H24zM26,30H27V31H26zM28,30H29V31H28zM29,30H30V31H29zM33,30H34V31H33zM35,30H36V31H35zM37,30H38V31H37zM5,31H6V32H5zM6,31H7V32H6zM7,31H8V32H7zM8,31H9V32H8zM9,31H10V32H9zM10,31H11V32H10zM11,31H12V32H11zM14,31H15V32H14zM16,31H17V32H16zM17,31H18V32H17zM19,31H20V32H19zM20,31H21V32H20zM21,31H22V32H21zM23,31H24V32H23zM25,31H26V32H25zM26,31H27V32H26zM28,31H29V32H28zM29,31H30V32H29zM31,31H32V32H31zM33,31H34V32H33zM35,31H36V32H35zM36,31H37V32H36zM5,32H6V33H5zM11,32H12V33H11zM13,32H14V33H13zM21,32H22V33H21zM25,32H26V33H25zM26,32H27V33H26zM27,32H28V33H27zM28,32H29V33H28zM29,32H30V33H29zM33,32H34V33H33zM34,32H35V33H34zM35,32H36V33H35zM5,33H6V34H5zM7,33H8V34H7zM8,33H9V34H8zM9,33H10V34H9zM11,33H12V34H11zM13,33H14V34H13zM14,33H15V34H14zM16,33H17V34H16zM17,33H18V34H17zM18,33H19V34H18zM19,33H20V34H19zM23,33H24V34H23zM24,33H25V34H24zM26,33H27V34H26zM29,33H30V34H29zM30,33H31V34H30zM31,33H32V34H31zM32,33H33V34H32zM33,33H34V34H33zM34,33H35V34H34zM36,33H37V34H36zM37,33H38V34H37zM5,34H6V35H5zM7,34H8V35H7zM8,34H9V35H8zM9,34H10V35H9zM11,34H12V35H11zM13,34H14V35H13zM15,34H16V35H15zM18,34H19V35H18zM19,34H20V35H19zM20,34H21V35H20zM21,34H22V35H21zM22,34H23V35H22zM25,34H26V35H25zM27,34H28V35H27zM28,34H29V35H28zM29,34H30V35H29zM30,34H31V35H30zM33,34H34V35H33zM34,34H35V35H34zM35,34H36V35H35zM37,34H38V35H37zM5,35H6V36H5zM7,35H8V36H7zM8,35H9V36H8zM9,35H10V36H9zM11,35H12V36H11zM13,35H14V36H13zM14,35H15V36H14zM15,35H16V36H15zM17,35H18V36H17zM24,35H25V36H24zM27,35H28V36H27zM31,35H32V36H31zM32,35H33V36H32zM35,35H36V36H35zM5,36H6V37H5zM11,36H12V37H11zM14,36H15V37H14zM15,36H16V37H15zM17,36H18V37H17zM19,36H20V37H19zM21,36H22V37H21zM23,36H24V37H23zM24,36H25V37H24zM25,36H26V37H25zM26,36H27V37H26zM27,36H28V37H27zM28,36H29V37H28zM33,36H34V37H33zM34,36H35V37H34zM35,36H36V37H35zM5,37H6V38H5zM6,37H7V38H6zM7,37H8V38H7zM8,37H9V38H8zM9,37H10V38H9zM10,37H11V38H10zM11,37H12V38H11zM13,37H14V38H13zM16,37H17V38H16zM18,37H19V38H18zM22,37H23V38H22zM24,37H25V38H24zM27,37H28V38H27zM28,37H29V38H28zM29,37H30V38H29zM30,37H31V38H30zM32,37H33V38H32zM34,37H35V38H34zM35,37H36V38H35zM36,37H37V38H36z" id="qr-path" fill="#000000" fill-opacity="1" fill-rule="nonzero" stroke="none" /></svg>